<svg width="1200" height="675" viewBox="0 0 1200 675" fill="none" xmlns="http://www.w3.org/2000/svg">
  <rect width="1200" height="675" fill="#F7FAFC"/>
  <rect x="92" y="78" width="1016" height="519" rx="34" fill="#0F172A"/>
  <rect x="146" y="132" width="300" height="411" rx="28" fill="#FFFFFF"/>
  <rect x="184" y="176" width="224" height="140" rx="24" fill="#E0F2FE"/>
  <rect x="234" y="210" width="124" height="72" rx="16" fill="#FFFFFF"/>
  <rect x="287" y="194" width="18" height="104" rx="9" fill="#EF4444"/>
  <rect x="244" y="237" width="104" height="18" rx="9" fill="#EF4444"/>
  <rect x="184" y="356" width="208" height="18" rx="9" fill="#0F172A"/>
  <rect x="184" y="398" width="154" height="14" rx="7" fill="#64748B"/>
  <rect x="184" y="430" width="188" height="14" rx="7" fill="#64748B"/>
  <rect x="184" y="462" width="118" height="14" rx="7" fill="#64748B"/>
  <rect x="504" y="132" width="550" height="172" rx="28" fill="#FFFFFF"/>
  <rect x="544" y="178" width="210" height="20" rx="10" fill="#0F172A"/>
  <rect x="544" y="222" width="410" height="18" rx="9" fill="#CBD5E1"/>
  <rect x="544" y="258" width="332" height="18" rx="9" fill="#CBD5E1"/>
  <rect x="504" y="348" width="258" height="195" rx="28" fill="#CCFBF1"/>
  <path d="M555 459c34-70 122-70 156 0" stroke="#0F766E" stroke-width="18" stroke-linecap="round"/>
  <circle cx="633" cy="420" r="42" fill="#14B8A6"/>
  <rect x="796" y="348" width="258" height="195" rx="28" fill="#FEE2E2"/>
  <path d="M852 449h146" stroke="#991B1B" stroke-width="20" stroke-linecap="round"/>
  <path d="M925 376v146" stroke="#991B1B" stroke-width="20" stroke-linecap="round"/>
  <text x="504" y="588" fill="#FFFFFF" font-family="Arial, sans-serif" font-size="46" font-weight="700">MedCard</text>
  <text x="504" y="626" fill="#CBD5E1" font-family="Arial, sans-serif" font-size="22">RFID-linked medical history dashboard</text>
</svg>