<svg width="1200" height="675" viewBox="0 0 1200 675" fill="none" xmlns="http://www.w3.org/2000/svg">
  <rect width="1200" height="675" fill="#101418"/>
  <rect x="80" y="70" width="1040" height="535" rx="34" fill="#F8FAFC"/>
  <rect x="120" y="116" width="960" height="76" rx="22" fill="#171717"/>
  <circle cx="166" cy="154" r="10" fill="#EF4444"/>
  <circle cx="198" cy="154" r="10" fill="#F59E0B"/>
  <circle cx="230" cy="154" r="10" fill="#22C55E"/>
  <rect x="282" y="135" width="456" height="38" rx="19" fill="#2F3A45"/>
  <rect x="780" y="132" width="96" height="44" rx="14" fill="#38BDF8"/>
  <rect x="900" y="132" width="136" height="44" rx="14" fill="#A3E635"/>
  <g transform="translate(135 230)">
    <rect width="266" height="280" rx="22" fill="#E2E8F0"/>
    <rect x="26" y="26" width="136" height="18" rx="9" fill="#0F172A"/>
    <rect x="26" y="68" width="214" height="52" rx="14" fill="#FFFFFF"/>
    <rect x="26" y="138" width="214" height="52" rx="14" fill="#FFFFFF"/>
    <rect x="26" y="208" width="156" height="34" rx="12" fill="#38BDF8"/>
  </g>
  <g transform="translate(467 230)">
    <rect width="266" height="280" rx="22" fill="#DCFCE7"/>
    <rect x="26" y="26" width="116" height="18" rx="9" fill="#14532D"/>
    <rect x="26" y="68" width="214" height="52" rx="14" fill="#FFFFFF"/>
    <rect x="26" y="138" width="214" height="52" rx="14" fill="#FFFFFF"/>
    <rect x="26" y="208" width="156" height="34" rx="12" fill="#22C55E"/>
  </g>
  <g transform="translate(799 230)">
    <rect width="266" height="280" rx="22" fill="#FFE4E6"/>
    <rect x="26" y="26" width="132" height="18" rx="9" fill="#7F1D1D"/>
    <rect x="26" y="68" width="214" height="52" rx="14" fill="#FFFFFF"/>
    <rect x="26" y="138" width="214" height="52" rx="14" fill="#FFFFFF"/>
    <rect x="26" y="208" width="156" height="34" rx="12" fill="#FB7185"/>
  </g>
  <text x="138" y="568" fill="#0F172A" font-family="Arial, sans-serif" font-size="44" font-weight="700">Sorted</text>
  <text x="138" y="606" fill="#475569" font-family="Arial, sans-serif" font-size="22">Browser tab workspace and card manager</text>
</svg>